<svg width="25" height="25" viewBox="0 0 25 25" fill="none" xmlns="http://www.w3.org/2000/svg">
<g clip-path="url(#clip0_70_50)">
<path d="M19.5312 14.0625C18.0808 14.0625 16.6898 14.6387 15.6643 15.6643C14.6387 16.6898 14.0625 18.0808 14.0625 19.5312C14.0625 20.9817 14.6387 22.3727 15.6643 23.3982C16.6898 24.4238 18.0808 25 19.5312 25C20.9817 25 22.3727 24.4238 23.3982 23.3982C24.4238 22.3727 25 20.9817 25 19.5312C25 18.0808 24.4238 16.6898 23.3982 15.6643C22.3727 14.6387 20.9817 14.0625 19.5312 14.0625ZM18.9781 23.2094L16.6344 20.8656C16.4877 20.7189 16.4053 20.52 16.4053 20.3125C16.4053 20.105 16.4877 19.9061 16.6344 19.7594C16.7811 19.6127 16.98 19.5303 17.1875 19.5303C17.395 19.5303 17.5939 19.6127 17.7406 19.7594L18.75 20.7703V16.4062C18.75 16.199 18.8323 16.0003 18.9788 15.8538C19.1253 15.7073 19.324 15.625 19.5312 15.625C19.7385 15.625 19.9372 15.7073 20.0837 15.8538C20.2302 16.0003 20.3125 16.199 20.3125 16.4062V20.7703L21.3219 19.7594C21.4686 19.6127 21.6675 19.5303 21.875 19.5303C22.0825 19.5303 22.2814 19.6127 22.4281 19.7594C22.5748 19.9061 22.6572 20.105 22.6572 20.3125C22.6572 20.52 22.5748 20.7189 22.4281 20.8656L20.0844 23.2094C20.0118 23.2821 19.9256 23.3399 19.8307 23.3792C19.7358 23.4186 19.634 23.4389 19.5312 23.4389C19.4285 23.4389 19.3267 23.4186 19.2318 23.3792C19.1369 23.3399 19.0507 23.2821 18.9781 23.2094Z" fill="black"/>
<path d="M18.9 9.72344C19.3982 9.50011 19.8716 9.22517 20.3125 8.90312V10.9375C20.3125 11.3891 19.9797 11.9594 19.1359 12.5109C20.0658 12.4585 20.9969 12.5912 21.875 12.9016V6.25C21.875 4.67656 20.5078 3.50781 18.9 2.77656C17.2219 2.01406 14.9578 1.5625 12.5 1.5625C10.0422 1.5625 7.77813 2.01406 6.1 2.77656C4.49219 3.50781 3.125 4.67656 3.125 6.25V20.3125C3.125 21.8859 4.49219 23.0547 6.1 23.7859C7.77813 24.5469 10.0422 25 12.5 25C13.3375 25 14.1531 24.9469 14.9297 24.8484C14.4418 24.4262 14.0143 23.9388 13.6594 23.4C13.2802 23.425 12.8938 23.4375 12.5 23.4375C10.2125 23.4375 8.17812 23.0156 6.74687 22.3641C5.24375 21.6797 4.6875 20.8953 4.6875 20.3125V18.2781C5.11094 18.5937 5.59375 18.8687 6.1 19.0984C7.77813 19.8594 10.0422 20.3125 12.5 20.3125H12.5422C12.4854 19.7932 12.4854 19.2693 12.5422 18.75H12.5C10.2125 18.75 8.17812 18.3281 6.74687 17.6766C5.24375 16.9922 4.6875 16.2078 4.6875 15.625V13.5906C5.11094 13.9062 5.59375 14.1812 6.1 14.4109C7.77813 15.1719 10.0422 15.625 12.5 15.625C12.9094 15.625 13.3125 15.6125 13.7094 15.5875C14.1745 14.901 14.7575 14.3022 15.4313 13.8187C14.5281 13.975 13.5406 14.0625 12.5 14.0625C10.2125 14.0625 8.17812 13.6406 6.74687 12.9891C5.24375 12.3047 4.6875 11.5203 4.6875 10.9375V8.90312C5.11094 9.21875 5.59375 9.49375 6.1 9.72344C7.77813 10.4859 10.0422 10.9375 12.5 10.9375C14.9578 10.9375 17.2219 10.4859 18.9 9.72344ZM4.6875 6.25C4.6875 5.66562 5.24375 4.88281 6.74687 4.19844C8.17812 3.54844 10.2125 3.125 12.5 3.125C14.7875 3.125 16.8219 3.54688 18.2531 4.19844C19.7563 4.88281 20.3125 5.66719 20.3125 6.25C20.3125 6.83438 19.7563 7.61719 18.2531 8.30156C16.8219 8.95156 14.7875 9.375 12.5 9.375C10.2125 9.375 8.17812 8.95313 6.74687 8.30156C5.24375 7.61719 4.6875 6.83281 4.6875 6.25Z" fill="black"/>
</g>
<defs>
<clipPath id="clip0_70_50">
<rect width="25" height="25" fill="white"/>
</clipPath>
</defs>
</svg>
