<svg width="22" height="24" viewBox="0 0 22 24" fill="none" xmlns="http://www.w3.org/2000/svg">
<path d="M16.4063 12.5C14.9558 12.5 13.5648 13.0762 12.5393 14.1018C11.5137 15.1273 10.9375 16.5183 10.9375 17.9687C10.9375 19.4192 11.5137 20.8102 12.5393 21.8357C13.5648 22.8613 14.9558 23.4375 16.4062 23.4375C17.8567 23.4375 19.2477 22.8613 20.2732 21.8357C21.2988 20.8102 21.875 19.4192 21.875 17.9688C21.875 16.5183 21.2988 15.1273 20.2732 14.1018C19.2477 13.0762 17.8567 12.5 16.4063 12.5ZM15.8531 21.6469L13.5094 19.3031C13.3627 19.1564 13.2803 18.9575 13.2803 18.75C13.2803 18.5425 13.3627 18.3436 13.5094 18.1969C13.6561 18.0502 13.855 17.9678 14.0625 17.9678C14.27 17.9678 14.4689 18.0502 14.6156 18.1969L15.625 19.2078L15.625 14.8437C15.625 14.6365 15.7073 14.4378 15.8538 14.2913C16.0003 14.1448 16.199 14.0625 16.4062 14.0625C16.6135 14.0625 16.8122 14.1448 16.9587 14.2913C17.1052 14.4378 17.1875 14.6365 17.1875 14.8437V19.2078L18.1969 18.1969C18.3436 18.0502 18.5425 17.9678 18.75 17.9678C18.9575 17.9678 19.1564 18.0502 19.3031 18.1969C19.4498 18.3436 19.5322 18.5425 19.5322 18.75C19.5322 18.9575 19.4498 19.1564 19.3031 19.3031L16.9594 21.6469C16.8868 21.7196 16.8006 21.7774 16.7057 21.8167C16.6108 21.8561 16.509 21.8764 16.4062 21.8764C16.3035 21.8764 16.2017 21.8561 16.1068 21.8167C16.0119 21.7774 15.9257 21.7196 15.8531 21.6469Z" fill="black"/>
<path d="M15.775 8.16094C16.2732 7.93761 16.7466 7.66267 17.1875 7.34062V9.375C17.1875 9.82656 16.8547 10.3969 16.0109 10.9484C16.9408 10.896 17.8719 11.0287 18.75 11.3391V4.6875C18.75 3.11406 17.3828 1.94531 15.775 1.21406C14.0969 0.451562 11.8328 0 9.375 0C6.91719 0 4.65313 0.451562 2.975 1.21406C1.36719 1.94531 0 3.11406 0 4.6875V18.75C0 20.3234 1.36719 21.4922 2.975 22.2234C4.65313 22.9844 6.91719 23.4375 9.375 23.4375C10.2125 23.4375 11.0281 23.3844 11.8047 23.2859C11.3168 22.8637 10.8893 22.3763 10.5344 21.8375C10.1552 21.8625 9.76875 21.875 9.375 21.875C7.0875 21.875 5.05312 21.4531 3.62187 20.8016C2.11875 20.1172 1.5625 19.3328 1.5625 18.75V16.7156C1.98594 17.0312 2.46875 17.3062 2.975 17.5359C4.65313 18.2969 6.91719 18.75 9.375 18.75H9.41719C9.36041 18.2307 9.36041 17.7068 9.41719 17.1875H9.375C7.0875 17.1875 5.05312 16.7656 3.62187 16.1141C2.11875 15.4297 1.5625 14.6453 1.5625 14.0625V12.0281C1.98594 12.3437 2.46875 12.6187 2.975 12.8484C4.65313 13.6094 6.91719 14.0625 9.375 14.0625C9.78437 14.0625 10.1875 14.05 10.5844 14.025C11.0495 13.3385 11.6325 12.7397 12.3063 12.2562C11.4031 12.4125 10.4156 12.5 9.375 12.5C7.0875 12.5 5.05312 12.0781 3.62187 11.4266C2.11875 10.7422 1.5625 9.95781 1.5625 9.375V7.34062C1.98594 7.65625 2.46875 7.93125 2.975 8.16094C4.65313 8.92344 6.91719 9.375 9.375 9.375C11.8328 9.375 14.0969 8.92344 15.775 8.16094ZM1.5625 4.6875C1.5625 4.10312 2.11875 3.32031 3.62187 2.63594C5.05312 1.98594 7.0875 1.5625 9.375 1.5625C11.6625 1.5625 13.6969 1.98438 15.1281 2.63594C16.6313 3.32031 17.1875 4.10469 17.1875 4.6875C17.1875 5.27188 16.6313 6.05469 15.1281 6.73906C13.6969 7.38906 11.6625 7.8125 9.375 7.8125C7.0875 7.8125 5.05312 7.39063 3.62187 6.73906C2.11875 6.05469 1.5625 5.27031 1.5625 4.6875Z" fill="black"/>
</svg>
