<svg width="25" height="25" viewBox="0 0 25 25" fill="none" xmlns="http://www.w3.org/2000/svg">
<path d="M19.5312 25C20.9817 25 22.3727 24.4238 23.3982 23.3982C24.4238 22.3727 25 20.9817 25 19.5312C25 18.0808 24.4238 16.6898 23.3982 15.6643C22.3727 14.6387 20.9817 14.0625 19.5312 14.0625C18.0808 14.0625 16.6898 14.6387 15.6643 15.6643C14.6387 16.6898 14.0625 18.0808 14.0625 19.5312C14.0625 20.9817 14.6387 22.3727 15.6643 23.3982C16.6898 24.4238 18.0808 25 19.5312 25ZM20.0844 15.8531L22.4281 18.1969C22.5748 18.3436 22.6572 18.5425 22.6572 18.75C22.6572 18.9575 22.5748 19.1564 22.4281 19.3031C22.2814 19.4498 22.0825 19.5322 21.875 19.5322C21.6675 19.5322 21.4686 19.4498 21.3219 19.3031L20.3125 18.2922V22.6562C20.3125 22.8635 20.2302 23.0622 20.0837 23.2087C19.9372 23.3552 19.7385 23.4375 19.5312 23.4375C19.324 23.4375 19.1253 23.3552 18.9788 23.2087C18.8323 23.0622 18.75 22.8635 18.75 22.6562V18.2922L17.7406 19.3031C17.5939 19.4498 17.395 19.5322 17.1875 19.5322C16.98 19.5322 16.7811 19.4498 16.6344 19.3031C16.4877 19.1564 16.4053 18.9575 16.4053 18.75C16.4053 18.5425 16.4877 18.3436 16.6344 18.1969L18.9781 15.8531C19.0507 15.7804 19.1369 15.7226 19.2318 15.6833C19.3267 15.6439 19.4285 15.6236 19.5312 15.6236C19.634 15.6236 19.7358 15.6439 19.8307 15.6833C19.9256 15.7226 20.0118 15.7804 20.0844 15.8531Z" fill="black"/>
<path d="M18.9 9.72344C19.3982 9.50011 19.8716 9.22517 20.3125 8.90312V10.9375C20.3125 11.3891 19.9797 11.9594 19.1359 12.5109C20.0658 12.4585 20.9969 12.5912 21.875 12.9016V6.25C21.875 4.67656 20.5078 3.50781 18.9 2.77656C17.2219 2.01406 14.9578 1.5625 12.5 1.5625C10.0422 1.5625 7.77813 2.01406 6.1 2.77656C4.49219 3.50781 3.125 4.67656 3.125 6.25V20.3125C3.125 21.8859 4.49219 23.0547 6.1 23.7859C7.77813 24.5469 10.0422 25 12.5 25C13.3375 25 14.1531 24.9469 14.9297 24.8484C14.4418 24.4262 14.0143 23.9388 13.6594 23.4C13.2802 23.425 12.8938 23.4375 12.5 23.4375C10.2125 23.4375 8.17812 23.0156 6.74687 22.3641C5.24375 21.6797 4.6875 20.8953 4.6875 20.3125V18.2781C5.11094 18.5937 5.59375 18.8687 6.1 19.0984C7.77813 19.8594 10.0422 20.3125 12.5 20.3125H12.5422C12.4854 19.7932 12.4854 19.2693 12.5422 18.75H12.5C10.2125 18.75 8.17812 18.3281 6.74687 17.6766C5.24375 16.9922 4.6875 16.2078 4.6875 15.625V13.5906C5.11094 13.9062 5.59375 14.1812 6.1 14.4109C7.77813 15.1719 10.0422 15.625 12.5 15.625C12.9094 15.625 13.3125 15.6125 13.7094 15.5875C14.1745 14.901 14.7575 14.3022 15.4313 13.8187C14.5281 13.975 13.5406 14.0625 12.5 14.0625C10.2125 14.0625 8.17812 13.6406 6.74687 12.9891C5.24375 12.3047 4.6875 11.5203 4.6875 10.9375V8.90312C5.11094 9.21875 5.59375 9.49375 6.1 9.72344C7.77813 10.4859 10.0422 10.9375 12.5 10.9375C14.9578 10.9375 17.2219 10.4859 18.9 9.72344ZM4.6875 6.25C4.6875 5.66562 5.24375 4.88281 6.74687 4.19844C8.17812 3.54844 10.2125 3.125 12.5 3.125C14.7875 3.125 16.8219 3.54688 18.2531 4.19844C19.7563 4.88281 20.3125 5.66719 20.3125 6.25C20.3125 6.83438 19.7563 7.61719 18.2531 8.30156C16.8219 8.95156 14.7875 9.375 12.5 9.375C10.2125 9.375 8.17812 8.95313 6.74687 8.30156C5.24375 7.61719 4.6875 6.83281 4.6875 6.25Z" fill="black"/>
</svg>
