<svg width="21" height="21" viewBox="0 0 21 21" fill="none" xmlns="http://www.w3.org/2000/svg">
<path d="M18 15C17.9836 15 17.9686 15.0047 17.9522 15.0047L16.1147 11.9428C16.3523 11.513 16.5 11.0259 16.5 10.5C16.5 9.97406 16.3528 9.48703 16.1147 9.05719L17.9522 5.99531C17.9686 5.99578 17.9836 6 18 6C19.657 6 21 4.65703 21 3C21 1.34297 19.657 0 18 0C16.8923 0 15.9356 0.607031 15.4163 1.5H5.58375C5.06438 0.607031 4.10766 0 3 0C1.34297 0 0 1.34297 0 3C0 4.10766 0.607031 5.06437 1.5 5.58375V15.4158C0.607031 15.9356 0 16.8923 0 18C0 19.657 1.34297 21 3 21C4.10766 21 5.06438 20.393 5.58375 19.5H15.4158C15.9356 20.393 16.8919 21 17.9995 21C19.6566 21 20.9995 19.657 20.9995 18C21 16.343 19.657 15 18 15ZM4.5 15.4163V5.58375C4.94922 5.32273 5.32273 4.94922 5.58375 4.5H15.3506L13.5478 7.50469C13.5314 7.50422 13.5164 7.5 13.5 7.5C11.843 7.5 10.5 8.84297 10.5 10.5C10.5 12.157 11.843 13.5 13.5 13.5C13.5164 13.5 13.5314 13.4953 13.5478 13.4953L15.3506 16.5H5.58375C5.32286 16.0507 4.94933 15.6771 4.5 15.4163ZM12.75 10.5C12.75 10.0866 13.0866 9.75 13.5 9.75C13.9134 9.75 14.25 10.0866 14.25 10.5C14.25 10.9134 13.9134 11.25 13.5 11.25C13.0866 11.25 12.75 10.9134 12.75 10.5ZM18.75 3C18.75 3.41344 18.4134 3.75 18 3.75C17.5866 3.75 17.25 3.41344 17.25 3C17.25 2.58656 17.5866 2.25 18 2.25C18.4134 2.25 18.75 2.58656 18.75 3ZM3 2.25C3.41344 2.25 3.75 2.58656 3.75 3C3.75 3.41344 3.41344 3.75 3 3.75C2.58656 3.75 2.25 3.41344 2.25 3C2.25 2.58656 2.58656 2.25 3 2.25ZM2.25 18C2.25 17.5866 2.58656 17.25 3 17.25C3.41344 17.25 3.75 17.5866 3.75 18C3.75 18.4134 3.41344 18.75 3 18.75C2.58656 18.75 2.25 18.4134 2.25 18ZM18 18.75C17.5866 18.75 17.25 18.4134 17.25 18C17.25 17.5866 17.5866 17.25 18 17.25C18.4134 17.25 18.75 17.5866 18.75 18C18.75 18.4134 18.4134 18.75 18 18.75Z" fill="black"/>
</svg>
