<svg width="21" height="21" viewBox="0 0 21 21" fill="none" xmlns="http://www.w3.org/2000/svg">
<path d="M6.70804 0L12.5287 3.43633L19.1658 0.638009V8.87977H17.2492V3.54686L13.4161 5.16322V8.87977H11.4995V5.07304L7.66633 2.81092V14.6257L9.45642 15.6826L8.49046 17.3571L6.63713 16.2624L0 19.0608V3.95992L6.70804 0ZM5.74975 14.5356V2.81092L1.91658 5.07304V16.1519L5.74975 14.5356ZM17.0451 9.93277L21 13.9344L14.0179 21H10.0621L10.0611 16.9974L17.0451 9.93277ZM16.1616 13.5688L17.4064 14.8293L18.29 13.9344L17.0442 12.6749L16.1616 13.5688ZM16.0514 16.1994L14.8056 14.9399L11.9786 17.8003V19.0608H13.2244L16.0514 16.1994Z" fill="black"/>
</svg>
