<svg width="21" height="21" viewBox="0 0 21 21" fill="none" xmlns="http://www.w3.org/2000/svg">
<path d="M11.6605 16.5789C12.1247 17.7726 12.81 18.9221 13.4732 19.8947H2.21053C1.62426 19.8947 1.062 19.6618 0.647448 19.2473C0.232894 18.8327 0 18.2705 0 17.6842V2.21053C0 0.994737 0.994737 0 2.21053 0H17.6842C18.2705 0 18.8327 0.232894 19.2473 0.647448C19.6618 1.062 19.8947 1.62426 19.8947 2.21053V8.43316C19.0658 7.99105 18.1153 7.73684 17.1316 7.73684C14.6889 7.73684 12.5226 9.27316 11.5721 11.4174L8.84211 14.9211L6.07895 11.6053L2.21053 16.5789H11.6605ZM21 13.8158C21 16.6895 17.1316 21 17.1316 21C17.1316 21 13.2632 16.6895 13.2632 13.8158C13.2632 11.7158 15.0316 9.94737 17.1316 9.94737C19.2316 9.94737 21 11.7158 21 13.8158ZM18.4579 13.9263C18.4579 13.2632 17.7947 12.6 17.1316 12.6C16.4684 12.6 15.8053 13.1526 15.8053 13.9263C15.8053 14.5895 16.3579 15.2526 17.1316 15.2526C17.9053 15.2526 18.5684 14.5895 18.4579 13.9263Z" fill="black"/>
</svg>
