<svg width="21" height="21" viewBox="0 0 21 21" fill="none" xmlns="http://www.w3.org/2000/svg">
<path d="M19.0254 8.62167L20.2978 7.385C21.2341 6.475 21.2341 4.99333 20.2978 4.08333L18.6053 2.43833C17.669 1.52833 16.1446 1.52833 15.2083 2.43833L13.936 3.675L19.0254 8.62167ZM12.2315 5.32L1.20034 16.0533V21H6.2898L17.321 10.2783L12.2315 5.32ZM19.2055 16.9167C19.2055 19.4717 16.1566 21 13.2038 21C12.5436 21 12.0034 20.475 12.0034 19.8333C12.0034 19.1917 12.5436 18.6667 13.2038 18.6667C15.0523 18.6667 16.8048 17.815 16.8048 16.9167C16.8048 16.3683 16.2286 15.9017 15.3284 15.5167L17.1049 13.79C18.3893 14.525 19.2055 15.505 19.2055 16.9167ZM1.89654 12.075C0.732209 11.4217 0 10.57 0 9.33333C0 7.23333 2.26865 6.265 4.27322 5.41333C5.50957 4.87667 7.20206 4.15333 7.20206 3.5C7.20206 3.02167 6.26579 2.33333 4.80137 2.33333C3.28894 2.33333 2.64075 3.045 2.60474 3.08C2.18462 3.55833 1.42841 3.61667 0.924264 3.22C0.683558 3.02785 0.529901 2.75168 0.496243 2.45071C0.462584 2.14974 0.551604 1.84793 0.744213 1.61C0.87625 1.44667 2.1126 0 4.80137 0C7.49014 0 9.60274 1.54 9.60274 3.5C9.60274 5.68167 7.28608 6.67333 5.2335 7.54833C4.10517 8.02667 2.40069 8.75 2.40069 9.33333C2.40069 9.695 2.91683 10.0333 3.68505 10.3367L1.89654 12.075Z" fill="black"/>
</svg>
